<?xml version="1.0" encoding="utf-8"?>
<!-- Generator: Adobe Illustrator 16.0.2, SVG Export Plug-In . SVG Version: 6.00 Build 0)  -->
<!DOCTYPE svg PUBLIC "-//W3C//DTD SVG 1.1//EN" "http://www.w3.org/Graphics/SVG/1.1/DTD/svg11.dtd">
<svg version="1.1" id="Layer_1" xmlns="http://www.w3.org/2000/svg" xmlns:xlink="http://www.w3.org/1999/xlink" x="0px" y="0px"
	 width="104px" height="33px" viewBox="0 0 104 33" enable-background="new 0 0 104 33" xml:space="preserve">
<g>
	<g>
		<linearGradient id="SVGID_1_" gradientUnits="userSpaceOnUse" x1="15.6211" y1="27.041" x2="30.9605" y2="8.7732">
			<stop  offset="0" style="stop-color:#9F9DF1"/>
			<stop  offset="1" style="stop-color:#5252F1"/>
		</linearGradient>
		<path fill-rule="evenodd" clip-rule="evenodd" fill="url(#SVGID_1_)" d="M37.613,12.625c-0.596-3.993-3.688-6.66-7.726-6.661
			c-3.07,0-6.142,0-9.212,0c-0.129,0-0.258,0-0.397,0c0,2.184,0,4.331,0,6.506c0.163,0,0.306,0,0.448,0c3.082,0,6.165-0.002,9.247,0
			c0.703,0.001,1.192,0.447,1.195,1.078c0.003,0.632-0.486,1.083-1.186,1.089c-0.345,0.003-3.478,0.001-3.814,0.001
			c0,0.008,0,0.014,0,0.021c-1.98,0-3.938,0-5.913,0c0,0.164,0,0.307,0,0.449c0,3.082,0.001,6.166-0.001,9.248
			c-0.001,0.701-0.449,1.191-1.08,1.193s-1.081-0.488-1.087-1.186c-0.003-0.345,0-3.479,0-3.813c-2.197,0-4.345,0-6.503,0
			c0,0.461-0.006,3.683,0.001,4.116c0.047,2.936,1.949,5.73,4.682,6.797c0.698,0.271,1.453,0.399,2.182,0.593
			c0.481,0,0.964,0,1.445,0c0.306-0.06,0.612-0.112,0.914-0.182c3.534-0.819,5.942-3.833,5.95-7.462
			c0.004-1.09,0.001-2.18,0.002-3.271c1.052,0.002,3.076,0.003,3.378,0c3.523-0.035,6.532-2.447,7.334-5.88
			c0.077-0.327,0.136-0.657,0.202-0.986c0-0.481,0-0.963,0-1.444C37.654,12.763,37.624,12.694,37.613,12.625z"/>
		
			<linearGradient id="SVGID_2_" gradientUnits="userSpaceOnUse" x1="-381.3662" y1="133.9531" x2="-366.0272" y2="115.6858" gradientTransform="matrix(-1 0 0 -1 -358.6074 139.9121)">
			<stop  offset="0" style="stop-color:#9F9DF1"/>
			<stop  offset="1" style="stop-color:#5252F1"/>
		</linearGradient>
		<path fill-rule="evenodd" clip-rule="evenodd" fill="url(#SVGID_2_)" d="M0.768,20.376c0.596,3.992,3.688,6.66,7.726,6.661
			c3.07,0.001,6.142,0,9.212,0c0.129,0,0.258,0,0.397,0c0-2.184,0-4.331,0-6.505c-0.163,0-0.306,0-0.448,0
			c-3.082,0-6.165,0-9.248-0.001c-0.701-0.001-1.191-0.447-1.193-1.079c-0.004-0.631,0.486-1.082,1.185-1.088
			c0.345-0.003,3.478,0,3.815,0c0-0.008,0-0.016,0-0.022c1.979,0,3.937,0,5.912,0c0-0.165,0-0.308,0-0.449
			c0-3.083-0.001-6.166,0.001-9.248c0.001-0.702,0.449-1.192,1.08-1.194c0.631-0.002,1.081,0.488,1.087,1.186
			c0.003,0.344,0,3.477,0,3.813c2.197,0,4.345,0,6.503,0c0-0.461,0.006-3.683-0.001-4.116c-0.047-2.936-1.95-5.73-4.682-6.797
			c-0.698-0.272-1.453-0.4-2.182-0.593c-0.481,0-0.964,0-1.445,0c-0.306,0.06-0.612,0.112-0.914,0.182
			c-3.533,0.819-5.942,3.833-5.951,7.462c-0.002,1.09,0,2.18,0,3.271c-1.053-0.001-3.076-0.002-3.379,0.001
			c-3.523,0.035-6.533,2.447-7.334,5.879c-0.076,0.327-0.136,0.657-0.203,0.986c0,0.481,0,0.963,0,1.445
			C0.727,20.239,0.757,20.306,0.768,20.376z"/>
	</g>
	<linearGradient id="SVGID_3_" gradientUnits="userSpaceOnUse" x1="16.1533" y1="27.4873" x2="31.4927" y2="9.2195">
		<stop  offset="0" style="stop-color:#9F9DF1"/>
		<stop  offset="1" style="stop-color:#5252F1"/>
	</linearGradient>
	<path fill-rule="evenodd" clip-rule="evenodd" fill="url(#SVGID_3_)" d="M20.986,20.797c-0.275-0.157-0.512-0.335-0.731-0.522
		c0,1.361,0.001,2.722,0,4.082c-0.001,0.701-0.449,1.191-1.08,1.193s-1.081-0.488-1.087-1.186c-0.003-0.345,0-3.479,0-3.813h-6.503
		c0,0.461-0.006,3.683,0.001,4.116c0.047,2.936,1.949,5.73,4.682,6.797c0.698,0.271,1.453,0.399,2.182,0.593h1.445
		c0.306-0.06,0.612-0.112,0.914-0.182c3.534-0.819,5.942-3.833,5.95-7.462c0.003-0.67,0.002-1.342,0.001-2.013
		C24.75,22.25,22.732,21.798,20.986,20.797z"/>
</g>
<path fill="#FFFFFF" d="M44.437,8.949h9.425v2.181h-7.136v3.739H53.1v2.198h-6.374v5.229h-2.289V8.949z"/>
<path fill="#FFFFFF" d="M63.842,12.689c-2.785,0-4.967,2.158-4.967,4.913c0,2.785,2.182,4.967,4.967,4.967
	c2.774,0,4.948-2.182,4.948-4.967C68.79,14.848,66.616,12.689,63.842,12.689z M63.842,20.443c-1.521,0-2.714-1.248-2.714-2.841
	c0-1.553,1.192-2.769,2.714-2.769s2.714,1.216,2.714,2.769C66.556,19.195,65.363,20.443,63.842,20.443z"/>
<path fill="#FFFFFF" d="M80.672,12.908h2.414l-3.536,9.389h-1.83l-1.802-5.33l-1.803,5.33h-1.83l-3.536-9.389h2.416l1.992,5.439
	l1.839-5.439h1.824l1.842,5.432L80.672,12.908z"/>
<path fill="#FFFFFF" d="M85.227,8.949h2.289v13.348h-2.289V8.949z"/>
<path fill="#FFFFFF" d="M103.296,15.623c0-3.82-3.108-6.928-6.929-6.928s-6.928,3.108-6.928,6.928c0,3.82,3.107,6.928,6.928,6.928
	c0.666,0,1.321-0.094,1.955-0.278l2.089,2.552l1.756-1.478l-1.729-2.105C102.237,19.94,103.296,17.879,103.296,15.623z
	 M96.747,20.331c-0.137,0.015-0.268,0.021-0.397,0.021c-2.548,0-4.621-2.122-4.621-4.729s2.073-4.729,4.621-4.729
	c2.558,0,4.639,2.122,4.639,4.729c0,1.539-0.751,2.982-1.984,3.86l-1.019-1.272l-1.77,1.451L96.747,20.331z"/>
<path fill="#FFFFFF" d="M55.061,8.949h2.289v13.348h-2.289V8.949z"/>
</svg>
